<?xml version="1.0" encoding="UTF-8"?>
<svg xmlns="http://www.w3.org/2000/svg" xmlns:xlink="http://www.w3.org/1999/xlink" width="300pt" height="285.749983pt" viewBox="0 0 300 285.749983" version="1.2">
<defs>
<clipPath id="clip1">
  <path d="M 28.679688 95 L 268.472656 95 L 268.472656 220 L 28.679688 220 Z M 28.679688 95 "/>
</clipPath>
</defs>
<g id="surface1">
<path style=" stroke:none;fill-rule:nonzero;fill:rgb(36.079407%,88.238525%,90.19928%);fill-opacity:1;" d="M 244.746094 49.273438 C 192.609375 28.683594 52.40625 38.074219 52.40625 53.460938 L 52.40625 165.402344 C 52.40625 180.898438 64.957031 193.457031 80.441406 193.457031 L 244.746094 193.457031 L 244.746094 49.273438 "/>
<path style=" stroke:none;fill-rule:nonzero;fill:rgb(1.568604%,2.349854%,2.349854%);fill-opacity:1;" d="M 244.746094 49.273438 L 245.042969 48.527344 C 234.222656 44.257812 219.738281 41.285156 203.527344 39.371094 C 187.320312 37.460938 169.386719 36.613281 151.695312 36.613281 C 126.335938 36.613281 101.488281 38.359375 82.9375 41.246094 C 73.660156 42.691406 65.964844 44.417969 60.527344 46.375 C 57.808594 47.359375 55.652344 48.390625 54.117188 49.527344 C 53.355469 50.09375 52.738281 50.6875 52.296875 51.339844 C 51.859375 51.988281 51.601562 52.710938 51.601562 53.460938 L 51.601562 165.402344 C 51.601562 181.339844 64.515625 194.257812 80.441406 194.257812 L 244.746094 194.257812 C 244.960938 194.257812 245.167969 194.175781 245.3125 194.023438 C 245.464844 193.878906 245.546875 193.671875 245.546875 193.457031 L 245.546875 49.273438 C 245.546875 48.941406 245.347656 48.644531 245.042969 48.527344 L 244.746094 49.273438 L 243.945312 49.273438 L 243.945312 192.65625 L 80.441406 192.65625 C 72.917969 192.65625 66.117188 189.609375 61.183594 184.671875 C 56.253906 179.738281 53.207031 172.933594 53.207031 165.402344 L 53.207031 53.460938 C 53.210938 53.078125 53.332031 52.683594 53.628906 52.234375 C 54.1875 51.394531 55.402344 50.4375 57.210938 49.519531 C 60.378906 47.898438 65.304688 46.355469 71.527344 44.984375 C 90.210938 40.859375 120.585938 38.214844 151.695312 38.214844 C 169.332031 38.214844 187.210938 39.0625 203.339844 40.96875 C 219.46875 42.867188 233.847656 45.828125 244.453125 50.015625 L 244.746094 49.273438 L 243.945312 49.273438 L 244.746094 49.273438 "/>
<path style=" stroke:none;fill-rule:nonzero;fill:rgb(100%,100%,100%);fill-opacity:1;" d="M 54.472656 256.175781 L 73.21875 256.175781 L 84.753906 201.152344 L 54.472656 201.152344 L 54.472656 256.175781 "/>
<path style=" stroke:none;fill-rule:nonzero;fill:rgb(1.568604%,2.349854%,2.349854%);fill-opacity:1;" d="M 54.472656 256.175781 L 54.472656 256.980469 L 73.21875 256.980469 C 73.597656 256.980469 73.925781 256.714844 74.003906 256.339844 L 85.539062 201.316406 C 85.589844 201.078125 85.53125 200.832031 85.375 200.644531 C 85.226562 200.460938 84.996094 200.347656 84.753906 200.347656 L 54.472656 200.347656 C 54.261719 200.347656 54.054688 200.433594 53.90625 200.585938 C 53.757812 200.730469 53.667969 200.9375 53.667969 201.152344 L 53.667969 256.175781 C 53.667969 256.386719 53.757812 256.59375 53.90625 256.746094 C 54.054688 256.894531 54.261719 256.980469 54.472656 256.980469 L 54.472656 256.175781 L 55.273438 256.175781 L 55.273438 201.953125 L 83.765625 201.953125 L 72.570312 255.375 L 54.472656 255.375 L 54.472656 256.175781 L 55.273438 256.175781 L 54.472656 256.175781 "/>
<path style=" stroke:none;fill-rule:nonzero;fill:rgb(100%,100%,100%);fill-opacity:1;" d="M 98.917969 245.914062 L 114.464844 245.914062 L 124.023438 196.542969 L 98.917969 196.542969 L 98.917969 245.914062 "/>
<path style=" stroke:none;fill-rule:nonzero;fill:rgb(1.568604%,2.349854%,2.349854%);fill-opacity:1;" d="M 98.917969 245.914062 L 98.917969 246.714844 L 114.464844 246.714844 C 114.847656 246.714844 115.175781 246.445312 115.25 246.066406 L 124.8125 196.695312 C 124.855469 196.457031 124.796875 196.21875 124.644531 196.03125 C 124.492188 195.847656 124.265625 195.742188 124.023438 195.742188 L 98.917969 195.742188 C 98.710938 195.742188 98.503906 195.824219 98.351562 195.976562 C 98.207031 196.125 98.117188 196.332031 98.117188 196.542969 L 98.117188 245.914062 C 98.117188 246.125 98.207031 246.332031 98.351562 246.480469 C 98.503906 246.632812 98.710938 246.714844 98.917969 246.714844 L 98.917969 245.914062 L 99.722656 245.914062 L 99.722656 197.34375 L 123.054688 197.34375 L 113.800781 245.113281 L 98.917969 245.113281 L 98.917969 245.914062 L 99.722656 245.914062 L 98.917969 245.914062 "/>
<path style=" stroke:none;fill-rule:nonzero;fill:rgb(100%,100%,100%);fill-opacity:1;" d="M 242.8125 256.175781 L 224.066406 256.175781 L 212.53125 201.152344 L 242.8125 201.152344 L 242.8125 256.175781 "/>
<path style=" stroke:none;fill-rule:nonzero;fill:rgb(1.568604%,2.349854%,2.349854%);fill-opacity:1;" d="M 242.8125 256.175781 L 242.8125 255.375 L 224.71875 255.375 L 213.515625 201.953125 L 242.011719 201.953125 L 242.011719 256.175781 L 242.8125 256.175781 L 242.8125 255.375 L 242.8125 256.175781 L 243.613281 256.175781 L 243.613281 201.152344 C 243.613281 200.9375 243.527344 200.730469 243.378906 200.585938 C 243.230469 200.433594 243.023438 200.347656 242.8125 200.347656 L 212.53125 200.347656 C 212.289062 200.347656 212.058594 200.460938 211.90625 200.644531 C 211.757812 200.832031 211.695312 201.078125 211.742188 201.316406 L 223.28125 256.339844 C 223.359375 256.714844 223.683594 256.980469 224.066406 256.980469 L 242.8125 256.980469 C 243.023438 256.980469 243.226562 256.894531 243.378906 256.746094 C 243.527344 256.589844 243.613281 256.390625 243.613281 256.175781 L 242.8125 256.175781 "/>
<path style=" stroke:none;fill-rule:nonzero;fill:rgb(100%,100%,100%);fill-opacity:1;" d="M 198.363281 245.914062 L 182.824219 245.914062 L 173.257812 196.542969 L 198.363281 196.542969 L 198.363281 245.914062 "/>
<path style=" stroke:none;fill-rule:nonzero;fill:rgb(1.568604%,2.349854%,2.349854%);fill-opacity:1;" d="M 198.363281 245.914062 L 198.363281 245.113281 L 183.484375 245.113281 L 174.234375 197.34375 L 197.5625 197.34375 L 197.5625 245.914062 L 198.363281 245.914062 L 198.363281 245.113281 L 198.363281 245.914062 L 199.164062 245.914062 L 199.164062 196.542969 C 199.164062 196.328125 199.082031 196.125 198.929688 195.976562 C 198.777344 195.824219 198.578125 195.742188 198.363281 195.742188 L 173.257812 195.742188 C 173.019531 195.742188 172.796875 195.847656 172.640625 196.03125 C 172.488281 196.21875 172.425781 196.457031 172.472656 196.695312 L 182.039062 246.066406 C 182.109375 246.445312 182.4375 246.714844 182.824219 246.714844 L 198.363281 246.714844 C 198.578125 246.714844 198.777344 246.632812 198.929688 246.480469 C 199.082031 246.328125 199.164062 246.128906 199.164062 245.914062 L 198.363281 245.914062 "/>
<path style=" stroke:none;fill-rule:nonzero;fill:rgb(36.079407%,88.238525%,90.19928%);fill-opacity:1;" d="M 231.003906 153.222656 C 206.617188 140.871094 77.652344 149.203125 77.652344 149.203125 C 66.828125 149.203125 58.050781 157.984375 58.050781 168.816406 L 58.050781 173.84375 C 58.050781 184.675781 66.828125 193.457031 77.652344 193.457031 L 234.136719 193.457031 L 231.003906 153.222656 "/>
<path style=" stroke:none;fill-rule:nonzero;fill:rgb(1.568604%,2.349854%,2.349854%);fill-opacity:1;" d="M 231.003906 153.222656 L 231.363281 152.507812 C 228.648438 151.136719 224.816406 150.050781 220.09375 149.15625 C 205.929688 146.5 183.738281 145.65625 161.007812 145.652344 C 120.140625 145.652344 77.609375 148.398438 77.601562 148.398438 L 77.652344 149.203125 L 77.652344 148.398438 C 66.386719 148.398438 57.25 157.539062 57.246094 168.816406 L 57.246094 173.84375 C 57.25 185.121094 66.386719 194.257812 77.652344 194.257812 L 234.136719 194.257812 C 234.359375 194.257812 234.574219 194.164062 234.726562 194.003906 C 234.875 193.839844 234.953125 193.617188 234.933594 193.394531 L 231.800781 153.160156 C 231.78125 152.878906 231.617188 152.636719 231.363281 152.507812 L 231.003906 153.222656 L 230.207031 153.285156 L 233.269531 192.65625 L 77.652344 192.65625 C 72.460938 192.65625 67.765625 190.550781 64.359375 187.144531 C 60.953125 183.738281 58.851562 179.039062 58.851562 173.84375 L 58.851562 168.816406 C 58.851562 163.617188 60.953125 158.917969 64.359375 155.515625 C 67.765625 152.105469 72.460938 150.003906 77.652344 150.003906 L 77.703125 150 C 77.707031 150 78.367188 149.960938 79.605469 149.882812 C 88.296875 149.359375 125.3125 147.257812 161.007812 147.257812 C 176.128906 147.257812 191.015625 147.636719 203.398438 148.667969 C 209.585938 149.183594 215.148438 149.863281 219.796875 150.738281 C 224.4375 151.609375 228.167969 152.683594 230.640625 153.9375 L 231.003906 153.222656 L 230.207031 153.285156 L 231.003906 153.222656 "/>
<path style=" stroke:none;fill-rule:nonzero;fill:rgb(36.079407%,88.238525%,90.19928%);fill-opacity:1;" d="M 249.332031 96.074219 C 239.207031 96.074219 231.003906 104.285156 231.003906 114.414062 L 231.003906 153.222656 C 231.003906 172.371094 214.359375 187.894531 193.824219 187.894531 L 103.328125 187.894531 C 82.792969 187.894531 66.152344 172.371094 66.152344 153.222656 L 66.152344 114.414062 C 66.152344 104.285156 57.945312 96.074219 47.824219 96.074219 C 37.703125 96.074219 29.5 104.285156 29.5 114.414062 L 29.5 168.496094 C 29.5 189.316406 42.277344 207.144531 60.410156 214.578125 C 66.222656 216.960938 72.585938 218.289062 79.257812 218.289062 L 124.507812 216.089844 L 217.894531 218.289062 C 245.375 218.289062 267.652344 195.996094 267.652344 168.496094 L 267.652344 114.414062 C 267.652344 104.285156 259.449219 96.074219 249.332031 96.074219 "/>
<g clip-path="url(#clip1)" clip-rule="nonzero">
<path style=" stroke:none;fill-rule:nonzero;fill:rgb(1.568604%,2.349854%,2.349854%);fill-opacity:1;" d="M 249.332031 96.074219 L 249.332031 95.273438 C 238.765625 95.273438 230.203125 103.839844 230.203125 114.414062 L 230.203125 153.222656 C 230.203125 162.558594 226.148438 171.015625 219.566406 177.152344 C 212.988281 183.289062 203.890625 187.09375 193.824219 187.09375 L 103.328125 187.09375 C 93.265625 187.09375 84.164062 183.289062 77.585938 177.152344 C 71.007812 171.015625 66.953125 162.558594 66.953125 153.222656 L 66.953125 114.414062 C 66.953125 103.839844 58.386719 95.273438 47.824219 95.273438 C 37.257812 95.273438 28.695312 103.839844 28.695312 114.414062 L 28.695312 168.496094 C 28.695312 189.652344 41.679688 207.769531 60.105469 215.320312 C 66.011719 217.742188 72.476562 219.089844 79.257812 219.089844 L 79.292969 219.085938 L 124.519531 216.890625 L 217.875 219.089844 L 217.894531 219.089844 C 245.820312 219.085938 268.453125 196.4375 268.453125 168.496094 L 268.453125 114.414062 C 268.453125 103.839844 259.894531 95.273438 249.332031 95.273438 L 249.332031 96.875 C 254.171875 96.875 258.546875 98.835938 261.722656 102.011719 C 264.890625 105.1875 266.851562 109.566406 266.851562 114.414062 L 266.851562 168.496094 C 266.851562 182.027344 261.375 194.269531 252.515625 203.132812 C 243.652344 212.003906 231.417969 217.480469 217.894531 217.484375 L 217.894531 218.289062 L 217.914062 217.484375 L 124.523438 215.285156 L 124.464844 215.285156 L 79.214844 217.484375 L 79.257812 218.289062 L 79.257812 217.484375 C 72.691406 217.484375 66.433594 216.183594 60.714844 213.835938 C 42.871094 206.519531 30.300781 188.980469 30.300781 168.496094 L 30.300781 114.414062 C 30.300781 109.566406 32.257812 105.1875 35.429688 102.011719 C 38.605469 98.835938 42.980469 96.875 47.824219 96.875 C 52.664062 96.875 57.042969 98.835938 60.214844 102.011719 C 63.390625 105.1875 65.351562 109.566406 65.351562 114.414062 L 65.351562 153.222656 C 65.351562 163.03125 69.617188 171.917969 76.492188 178.328125 C 83.371094 184.734375 92.859375 188.695312 103.328125 188.695312 L 193.824219 188.695312 C 204.292969 188.695312 213.785156 184.734375 220.660156 178.328125 C 227.535156 171.917969 231.804688 163.03125 231.804688 153.222656 L 231.804688 114.414062 C 231.804688 109.566406 233.765625 105.1875 236.9375 102.011719 C 240.109375 98.835938 244.488281 96.875 249.332031 96.875 L 249.332031 96.074219 "/>
</g>
</g>
</svg>
